<svg viewBox="0 0 240 194" fill="none" xmlns="http://www.w3.org/2000/svg">
<g clip-path="url(#clip0_118_2)">
<path d="M51.5729 193.263H37.1021V53.728H51.5729V193.263Z" fill="white"/>
<path d="M239.883 69.9854L120.392 0.997367L113.157 13.5294L210.943 69.9854H239.883" fill="white"/>
<path d="M0 70.7653L7.23593 83.2969L128.075 13.5293L120.841 0.997348L0 70.7653Z" fill="white"/>
<path d="M94.674 31.4907H77.8979V5.04272H94.674V31.4907" fill="white"/>
<path d="M88.2826 96.4211C94.8686 96.4211 100.296 97.2154 104.566 98.804C108.868 100.393 112.062 102.792 114.147 106.002C116.232 109.213 117.274 113.267 117.274 118.165C117.274 121.475 116.646 124.37 115.388 126.853C114.13 129.335 112.476 131.436 110.424 133.157C108.372 134.878 106.154 136.285 103.771 137.377L125.118 169H108.041L90.7151 141.15H82.5239V169H67.1344V96.4211H88.2826ZM87.1904 109.031H82.5239V128.64H87.4883C92.585 128.64 96.2255 127.796 98.4099 126.108C100.627 124.387 101.736 121.872 101.736 118.562C101.736 115.12 100.545 112.671 98.1616 111.215C95.8118 109.759 92.1548 109.031 87.1904 109.031ZM149.394 169H134.253V96.4211H175.854V109.031H149.394V127.746H174.017V140.306H149.394V169ZM232.894 148.845C232.894 153.147 231.852 156.887 229.767 160.064C227.682 163.241 224.637 165.69 220.632 167.411C216.661 169.132 211.829 169.993 206.136 169.993C203.621 169.993 201.155 169.827 198.739 169.496C196.357 169.165 194.056 168.686 191.839 168.057C189.655 167.395 187.57 166.584 185.584 165.624V151.327C189.026 152.849 192.6 154.223 196.307 155.447C200.014 156.672 203.687 157.284 207.328 157.284C209.843 157.284 211.862 156.953 213.384 156.291C214.94 155.629 216.065 154.719 216.76 153.561C217.455 152.403 217.803 151.079 217.803 149.589C217.803 147.769 217.19 146.214 215.966 144.923C214.741 143.632 213.053 142.424 210.902 141.299C208.784 140.174 206.385 138.966 203.704 137.675C202.016 136.881 200.179 135.921 198.193 134.796C196.208 133.637 194.321 132.231 192.534 130.576C190.747 128.921 189.274 126.919 188.116 124.569C186.991 122.186 186.428 119.34 186.428 116.03C186.428 111.695 187.421 107.988 189.406 104.91C191.392 101.832 194.222 99.4825 197.896 97.8608C201.602 96.206 205.971 95.3786 211.001 95.3786C214.774 95.3786 218.365 95.8254 221.774 96.719C225.216 97.5795 228.807 98.8371 232.547 100.492L227.582 112.456C224.24 111.099 221.245 110.057 218.597 109.328C215.949 108.567 213.252 108.187 210.505 108.187C208.585 108.187 206.947 108.501 205.59 109.13C204.233 109.726 203.207 110.586 202.512 111.711C201.817 112.803 201.47 114.078 201.47 115.534C201.47 117.255 201.966 118.711 202.959 119.903C203.985 121.061 205.508 122.186 207.526 123.278C209.578 124.37 212.127 125.645 215.171 127.101C218.878 128.855 222.039 130.692 224.653 132.611C227.301 134.498 229.336 136.732 230.76 139.313C232.183 141.862 232.894 145.039 232.894 148.845Z" fill="white"/>
</g>
<defs>
<clipPath id="clip0_118_2">
<rect width="240" height="194" fill="white"/>
</clipPath>
</defs>
</svg>
