<?xml version="1.0" encoding="UTF-8"?>
<svg width="197px" height="66px" viewBox="0 0 197 66" version="1.1" xmlns="http://www.w3.org/2000/svg" xmlns:xlink="http://www.w3.org/1999/xlink">
    <g id="Artboard" stroke="none" stroke-width="1" fill="none" fill-rule="evenodd">
        <g id="light-background" transform="translate(25.000000, 1.000000)"></g>
        <polygon id="Fill-1" fill="#FFFFFF" points="12.271707 63.912807 17.05788 63.912807 17.05788 17.761716 12.271707 17.761716"></polygon>
        <polyline id="Fill-2" fill="#FFFFFF" points="79.341192 23.138829 39.819654 0.321048 37.426788 4.465566 69.769287 23.138829 79.341192 23.138829"></polyline>
        <polyline id="Fill-3" fill="#FFFFFF" points="0 23.396814 2.393307 27.541773 42.361137 4.465566 39.968271 0.321048 0 23.396814"></polyline>
        <path d="M29.2197343,34.4887389 L30.6682206,34.4887389 C32.0877443,34.4887389 33.1354723,34.2521551 33.8114359,33.7789806 C34.4873996,33.305806 34.8253764,32.5622571 34.8253764,31.5483116 C34.8253764,30.5440227 34.4801572,29.8294433 33.7897086,29.4045519 C33.09926,28.9796604 32.029805,28.7672179 30.5813114,28.7672179 L29.2197343,28.7672179 L29.2197343,34.4887389 Z M29.2197343,38.1389244 L29.2197343,46.2649327 L24.7294266,46.2649327 L24.7294266,25.0880626 L30.8999784,25.0880626 C33.7776523,25.0880626 35.9069059,25.6119266 37.2878031,26.6596703 C38.6687003,27.7074139 39.3591386,29.2983189 39.3591386,31.4324327 C39.3591386,32.6781372 39.0163336,33.7862181 38.3307133,34.7567088 C37.645093,35.7271995 36.6746168,36.4876472 35.4192557,37.0380748 C38.6059416,41.7987903 40.6820846,44.8743789 41.647747,46.2649327 L36.664954,46.2649327 L31.6097367,38.1389244 L29.2197343,38.1389244 Z M55.4373368,46.2649327 L54.8434574,44.1935973 L54.6116996,44.1935973 C54.138525,44.9468139 53.4673997,45.5286168 52.5983036,45.9390233 C51.7292075,46.3494298 50.7394184,46.55463 49.6289066,46.55463 C47.7265517,46.55463 46.2925646,46.0452507 45.3269022,45.0264769 C44.3612398,44.0077031 43.8784159,42.5423324 43.8784159,40.6303209 L43.8784159,30.0708556 L48.2962992,30.0708556 L48.2962992,39.5294713 C48.2962992,40.6979228 48.5039135,41.5742482 48.9191483,42.158474 C49.3343831,42.7426997 49.995852,43.0348082 50.9035746,43.0348082 C52.1396224,43.0348082 53.0328467,42.6219937 53.5832743,41.7963524 C54.1337019,40.9707111 54.4089115,39.6019052 54.4089115,37.6898937 L54.4089115,30.0708556 L58.8267948,30.0708556 L58.8267948,46.2649327 L55.4373368,46.2649327 Z M74.7601444,41.4559581 C74.7601444,43.1168974 74.1831698,44.3818961 73.0292033,45.2509923 C71.8752367,46.1200884 70.1491411,46.55463 67.8508646,46.55463 C66.6727565,46.55463 65.6684827,46.474964 64.8380131,46.3156297 C64.0075434,46.1562954 63.2301969,45.9221258 62.5059501,45.6131139 L62.5059501,41.9629283 C63.3267631,42.3491933 64.251371,42.6726853 65.2798014,42.9334142 C66.3082318,43.194143 67.2135267,43.3245055 67.9957133,43.3245055 C69.5987128,43.3245055 70.4002006,42.8609945 70.4002006,41.9339586 C70.4002006,41.5863201 70.2939793,41.3038681 70.0815336,41.0865941 C69.8690879,40.8693201 69.5021417,40.6230798 68.980684,40.3478661 C68.4592263,40.0726523 67.7639598,39.7515744 66.8948637,39.3846227 C65.6491592,38.863165 64.7342078,38.380341 64.1499821,37.9361363 C63.5657563,37.4919316 63.1408712,36.9825524 62.8753141,36.4079833 C62.6097569,35.8334141 62.4769804,35.1260771 62.4769804,34.2859508 C62.4769804,32.8471138 63.034642,31.7342046 64.1499821,30.9471898 C65.2653221,30.160175 66.8465705,29.7666734 68.8937748,29.7666734 C70.8444128,29.7666734 72.7419109,30.1915585 74.5863261,31.0413414 L73.2537186,34.2280113 C72.4425622,33.8803729 71.6845286,33.5955067 70.9795951,33.3734044 C70.2746616,33.151302 69.5552539,33.0402525 68.8213505,33.0402525 C67.5177063,33.0402525 66.8658939,33.392714 66.8658939,34.0976476 C66.8658939,34.4935691 67.0759223,34.8363741 67.4959855,35.1260729 C67.9160486,35.4157716 68.8358282,35.8454849 70.2553519,36.4152257 C71.5203697,36.9270267 72.4473916,37.4050225 73.0364457,37.8492271 C73.6254997,38.2934318 74.0600413,38.8052252 74.3400834,39.3846227 C74.6201255,39.9640201 74.7601444,40.6544583 74.7601444,41.4559581 Z M89.5057352,41.4559581 C89.5057352,43.1168974 88.9287606,44.3818961 87.7747941,45.2509923 C86.6208275,46.1200884 84.8947319,46.55463 82.5964555,46.55463 C81.4183473,46.55463 80.4140735,46.474964 79.5836039,46.3156297 C78.7531342,46.1562954 77.9757877,45.9221258 77.2515409,45.6131139 L77.2515409,41.9629283 C78.0723539,42.3491933 78.9969618,42.6726853 80.0253922,42.9334142 C81.0538227,43.194143 81.9591176,43.3245055 82.7413041,43.3245055 C84.3443036,43.3245055 85.1457914,42.8609945 85.1457914,41.9339586 C85.1457914,41.5863201 85.0395701,41.3038681 84.8271244,41.0865941 C84.6146787,40.8693201 84.2477325,40.6230798 83.7262748,40.3478661 C83.2048171,40.0726523 82.5095506,39.7515744 81.6404545,39.3846227 C80.39475,38.863165 79.4797986,38.380341 78.8955729,37.9361363 C78.3113471,37.4919316 77.8864621,36.9825524 77.6209049,36.4079833 C77.3553478,35.8334141 77.2225712,35.1260771 77.2225712,34.2859508 C77.2225712,32.8471138 77.7802328,31.7342046 78.8955729,30.9471898 C80.0109129,30.160175 81.5921614,29.7666734 83.6393656,29.7666734 C85.5900036,29.7666734 87.4875017,30.1915585 89.3319169,31.0413414 L87.9993095,34.2280113 C87.1881531,33.8803729 86.4301195,33.5955067 85.7251859,33.3734044 C85.0202524,33.151302 84.3008447,33.0402525 83.5669413,33.0402525 C82.2632971,33.0402525 81.6114847,33.392714 81.6114847,34.0976476 C81.6114847,34.4935691 81.8215132,34.8363741 82.2415763,35.1260729 C82.6616394,35.4157716 83.5814191,35.8454849 85.0009428,36.4152257 C86.2659605,36.9270267 87.1929825,37.4050225 87.7820365,37.8492271 C88.3710906,38.2934318 88.8056321,38.8052252 89.0856742,39.3846227 C89.3657163,39.9640201 89.5057352,40.6544583 89.5057352,41.4559581 Z M99.6596244,32.9098888 C98.7229319,32.9098888 97.9890395,33.2068255 97.4579252,33.8007079 C96.9268109,34.3945902 96.6226318,35.237118 96.5453788,36.3283165 L102.7449,36.3283165 C102.725587,35.237118 102.440721,34.3945902 101.890293,33.8007079 C101.339866,33.2068255 100.596317,32.9098888 99.6596244,32.9098888 Z M100.282474,46.55463 C97.6751851,46.55463 95.637668,45.8352223 94.1698612,44.3963854 C92.7020544,42.9575484 91.968162,40.9200313 91.968162,38.283773 C91.968162,35.5702618 92.6465296,33.4723917 94.0032853,31.9901 C95.3600409,30.5078082 97.235812,29.7666734 99.6306547,29.7666734 C101.919275,29.7666734 103.700895,30.4184858 104.975569,31.72213 C106.250244,33.0257742 106.887571,34.8267075 106.887571,37.124984 L106.887571,39.2687438 L96.4439847,39.2687438 C96.4922679,40.5241048 96.8640423,41.5042375 97.5593192,42.209171 C98.2545961,42.9141045 99.2299005,43.266566 100.485262,43.266566 C101.460581,43.266566 102.382774,43.165173 103.25187,42.9623839 C104.120967,42.7595948 105.028676,42.4361027 105.975025,41.991898 L105.975025,45.4103258 C105.202495,45.7965907 104.376866,46.083871 103.498113,46.2721751 C102.61936,46.4604793 101.547491,46.55463 100.282474,46.55463 Z M114.897701,46.2649327 L110.479817,46.2649327 L110.479817,23.7264854 L114.897701,23.7264854 L114.897701,46.2649327 Z M123.95074,46.2649327 L119.532857,46.2649327 L119.532857,23.7264854 L123.95074,23.7264854 L123.95074,46.2649327 Z" id="Russell" fill="#FFFFFF" fill-rule="nonzero"></path>
        <path d="M24.4165154,62.9407291 L24.4165154,51.4678384 L30.8273807,51.4678384 L30.8273807,52.6848951 L26.0444256,52.6848951 L26.0444256,56.5298638 L30.0599373,56.5298638 L30.0599373,57.7314166 L26.0444256,57.7314166 L26.0444256,62.9407291 L24.4165154,62.9407291 Z M32.9746276,62.9407291 L32.9746276,54.522108 L34.5017624,54.522108 L34.5017624,62.9407291 L32.9746276,62.9407291 Z M32.9746276,52.9949732 L32.9746276,51.4678384 L34.5017624,51.4678384 L34.5017624,52.9949732 L32.9746276,52.9949732 Z M37.5637397,62.9407291 L37.5637397,54.522108 L39.0908745,54.522108 L39.0908745,56.1035064 C39.8970817,54.9252036 40.8841538,54.3360611 42.0521206,54.3360611 C42.7808078,54.3360611 43.3621985,54.5673254 43.7963101,55.0298609 C44.2304216,55.4923964 44.4474741,56.1138384 44.4474741,56.8942056 L44.4474741,62.9407291 L42.9203394,62.9407291 L42.9203394,57.3903306 C42.9203394,56.7650033 42.8286088,56.3192704 42.645145,56.0531187 C42.4616812,55.786967 42.1580661,55.6538931 41.7342905,55.6538931 C40.7988835,55.6538931 39.9177536,56.2662913 39.0908745,57.491106 L39.0908745,62.9407291 L37.5637397,62.9407291 Z M51.7575218,61.8709595 C50.8427868,62.7133426 49.9616569,63.1345279 49.1141058,63.1345279 C48.4164265,63.1345279 47.8376198,62.9161834 47.3776683,62.4794879 C46.9177168,62.0427923 46.6877445,61.4911172 46.6877445,60.8244459 C46.6877445,59.9045428 47.0740463,59.1978302 47.8466615,58.7042867 C48.6192767,58.2107432 49.7265029,57.9639752 51.1683734,57.9639752 L51.5327152,57.9639752 L51.5327152,56.9484693 C51.5327152,55.9717183 51.0314272,55.4833502 50.0288363,55.4833502 C49.2226291,55.4833502 48.3518351,55.7314102 47.4164281,56.2275377 L47.4164281,54.9639693 C48.444859,54.5453617 49.4086755,54.3360611 50.3079066,54.3360611 C51.2484816,54.3360611 51.9422745,54.5479457 52.389306,54.9717212 C52.8363375,55.3954968 53.0598499,56.0544062 53.0598499,56.9484693 L53.0598499,60.7624302 C53.0598499,61.6358213 53.3285816,62.0725103 53.8660531,62.0725103 C53.933237,62.0725103 54.0314274,62.0621745 54.1606273,62.0415025 L54.2691546,62.8864654 C53.922899,63.0518412 53.5404731,63.1345279 53.1218656,63.1345279 C52.4086823,63.1345279 51.9539056,62.7133426 51.7575218,61.8709595 Z M51.5327152,61.0415005 L51.5327152,58.8632017 L51.0210863,58.8476978 C50.1838711,58.8476978 49.506874,59.0066113 48.9900746,59.3244429 C48.4732751,59.6422746 48.2148792,60.0595839 48.2148792,60.5763834 C48.2148792,60.943311 48.3440772,61.253386 48.6024769,61.5066177 C48.8608766,61.7598495 49.1761196,61.8864634 49.5482152,61.8864634 C50.1838785,61.8864634 50.8453719,61.604812 51.5327152,61.0415005 Z M56.183843,62.9407291 L56.183843,54.522108 L57.7109777,54.522108 L57.7109777,56.1035064 C58.5171849,54.9252036 59.504257,54.3360611 60.6722238,54.3360611 C61.400911,54.3360611 61.9823017,54.5673254 62.4164133,55.0298609 C62.8505248,55.4923964 63.0675773,56.1138384 63.0675773,56.8942056 L63.0675773,62.9407291 L61.5404426,62.9407291 L61.5404426,57.3903306 C61.5404426,56.7650033 61.448712,56.3192704 61.2652482,56.0531187 C61.0817844,55.786967 60.7781693,55.6538931 60.3543937,55.6538931 C59.4189867,55.6538931 58.5378569,56.2662913 57.7109777,57.491106 L57.7109777,62.9407291 L56.183843,62.9407291 Z M69.3233594,63.1345279 C68.1864006,63.1345279 67.2432557,62.7133426 66.4938965,61.8709595 C65.7445373,61.0285764 65.3698633,59.9665695 65.3698633,58.6849068 C65.3698633,57.3153882 65.7406614,56.2482134 66.4822686,55.4833502 C67.2238758,54.718487 68.2587512,54.3360611 69.5869258,54.3360611 C70.2432611,54.3360611 70.9771053,54.4264996 71.7884805,54.6073795 L71.7884805,55.8864517 C70.9254254,55.63322 70.2225887,55.506606 69.6799492,55.506606 C68.8995821,55.506606 68.2729721,55.7998853 67.8001006,56.3864527 C67.3272291,56.9730201 67.0907969,57.7546675 67.0907969,58.7314185 C67.0907969,59.6771615 67.333689,60.4420133 67.8194805,61.0259966 C68.305272,61.60998 68.9409258,61.9019673 69.726461,61.9019673 C70.4241402,61.9019673 71.1424807,61.7236742 71.8815039,61.3670826 L71.8815039,62.6849146 C70.894417,62.9846583 70.0417106,63.1345279 69.3233594,63.1345279 Z M74.168286,62.9407291 L74.168286,54.522108 L75.6954208,54.522108 L75.6954208,62.9407291 L74.168286,62.9407291 Z M74.168286,52.9949732 L74.168286,51.4678384 L75.6954208,51.4678384 L75.6954208,52.9949732 L74.168286,52.9949732 Z M83.0984919,61.8709595 C82.1837569,62.7133426 81.302627,63.1345279 80.4550759,63.1345279 C79.7573966,63.1345279 79.1785899,62.9161834 78.7186384,62.4794879 C78.2586869,62.0427923 78.0287146,61.4911172 78.0287146,60.8244459 C78.0287146,59.9045428 78.4150164,59.1978302 79.1876316,58.7042867 C79.9602467,58.2107432 81.067473,57.9639752 82.5093435,57.9639752 L82.8736853,57.9639752 L82.8736853,56.9484693 C82.8736853,55.9717183 82.3723973,55.4833502 81.3698064,55.4833502 C80.5635992,55.4833502 79.6928052,55.7314102 78.7573982,56.2275377 L78.7573982,54.9639693 C79.7858291,54.5453617 80.7496456,54.3360611 81.6488767,54.3360611 C82.5894517,54.3360611 83.2832446,54.5479457 83.7302761,54.9717212 C84.1773076,55.3954968 84.40082,56.0544062 84.40082,56.9484693 L84.40082,60.7624302 C84.40082,61.6358213 84.6695517,62.0725103 85.2070232,62.0725103 C85.2742071,62.0725103 85.3723975,62.0621745 85.5015974,62.0415025 L85.6101247,62.8864654 C85.2638691,63.0518412 84.8814432,63.1345279 84.4628357,63.1345279 C83.7496524,63.1345279 83.2948757,62.7133426 83.0984919,61.8709595 Z M82.8736853,61.0415005 L82.8736853,58.8632017 L82.3620564,58.8476978 C81.5248412,58.8476978 80.8478441,59.0066113 80.3310446,59.3244429 C79.8142452,59.6422746 79.5558493,60.0595839 79.5558493,60.5763834 C79.5558493,60.943311 79.6850473,61.253386 79.943447,61.5066177 C80.2018467,61.7598495 80.5170897,61.8864634 80.8891853,61.8864634 C81.5248486,61.8864634 82.186342,61.604812 82.8736853,61.0415005 Z M87.524813,62.9407291 L87.524813,50.7003951 L89.0519478,50.7003951 L89.0519478,62.9407291 L87.524813,62.9407291 Z M99.3387014,63.2275513 C98.5686702,63.2275513 97.584182,63.059594 96.3852073,62.7236744 L96.3852073,61.1112681 C97.6772059,61.7107555 98.7392129,62.0104947 99.57126,62.0104947 C100.212091,62.0104947 100.727591,61.8425374 101.117775,61.5066177 C101.507958,61.1706981 101.703047,60.7288412 101.703047,60.1810337 C101.703047,59.7314182 101.575141,59.3489924 101.319325,59.0337447 C101.06351,58.718497 100.591937,58.3670787 99.904594,57.9794791 L99.1138948,57.5221138 C98.1371438,56.9639704 97.4485188,56.4381349 97.0479993,55.9445914 C96.6474797,55.4510479 96.4472229,54.8761171 96.4472229,54.2197818 C96.4472229,53.3360547 96.7676337,52.6086704 97.4084651,52.037607 C98.0492964,51.4665436 98.8658273,51.1810162 99.8580823,51.1810162 C100.741809,51.1810162 101.674618,51.3283018 102.656537,51.6228775 L102.656537,53.1112525 C101.447227,52.635797 100.545425,52.3980728 99.9511057,52.3980728 C99.3877943,52.3980728 98.9226818,52.5479424 98.5557541,52.8476861 C98.1888265,53.1474298 98.0053655,53.5246877 98.0053655,53.9794712 C98.0053655,54.3619028 98.1397313,54.7004014 98.408467,54.9949771 C98.6772027,55.2895528 99.1681549,55.6409712 99.8813381,56.0492427 L100.703045,56.5143599 C101.6953,57.0776713 102.387801,57.6099668 102.780569,58.1112623 C103.173336,58.6125577 103.369717,59.2146201 103.369717,59.9174673 C103.369717,60.9148903 103.001503,61.7159174 102.265064,62.3205728 C101.528624,62.9252282 100.55318,63.2275513 99.3387014,63.2275513 Z M108.982087,63.1345279 C107.777944,63.1345279 106.816712,62.7353063 106.09836,61.9368511 C105.380009,61.138396 105.020839,60.0699291 105.020839,58.7314185 C105.020839,57.3774039 105.381301,56.3063531 106.102236,55.5182339 C106.823172,54.7301148 107.8012,54.3360611 109.036351,54.3360611 C110.271501,54.3360611 111.24953,54.7301148 111.970465,55.5182339 C112.6914,56.3063531 113.051862,57.372236 113.051862,58.7159146 C113.051862,60.0906012 112.690108,61.1706958 111.966589,61.956231 C111.24307,62.7417662 110.248246,63.1345279 108.982087,63.1345279 Z M109.005343,61.9872388 C110.622925,61.9872388 111.431704,60.8968083 111.431704,58.7159146 C111.431704,56.5608609 110.633261,55.4833502 109.036351,55.4833502 C107.444608,55.4833502 106.648749,56.5660288 106.648749,58.7314185 C106.648749,60.9019762 107.434272,61.9872388 109.005343,61.9872388 Z M115.43942,62.9407291 L115.43942,50.7003951 L116.966555,50.7003951 L116.966555,62.9407291 L115.43942,62.9407291 Z M125.292108,62.9407291 L125.292108,61.3593306 C124.480733,62.5428014 123.496245,63.1345279 122.338614,63.1345279 C121.604759,63.1345279 121.020784,62.9032636 120.586673,62.4407281 C120.152561,61.9781926 119.935509,61.3541666 119.935509,60.5686314 L119.935509,54.522108 L121.462643,54.522108 L121.462643,60.0725064 C121.462643,60.7030017 121.554374,61.1513186 121.737838,61.4174703 C121.921301,61.683622 122.227501,61.8166959 122.656444,61.8166959 C123.586683,61.8166959 124.465229,61.2042977 125.292108,59.979483 L125.292108,54.522108 L126.819243,54.522108 L126.819243,62.9407291 L125.292108,62.9407291 Z M132.408357,63.1345279 C131.633158,63.1345279 131.028512,62.9123075 130.5944,62.4678599 C130.160288,62.0234124 129.943236,61.4058463 129.943236,60.6151431 L129.943236,55.669397 L128.88897,55.669397 L128.88897,54.522108 L129.943236,54.522108 L129.943236,52.9949732 L131.470371,52.8476861 L131.470371,54.522108 L133.671925,54.522108 L133.671925,55.669397 L131.470371,55.669397 L131.470371,60.3360728 C131.470371,61.4368557 131.945819,61.9872388 132.89673,61.9872388 C133.098282,61.9872388 133.343758,61.9536474 133.633166,61.8864634 L133.633166,62.9407291 C133.162878,63.0699289 132.754613,63.1345279 132.408357,63.1345279 Z M135.819172,62.9407291 L135.819172,54.522108 L137.346307,54.522108 L137.346307,62.9407291 L135.819172,62.9407291 Z M135.819172,52.9949732 L135.819172,51.4678384 L137.346307,51.4678384 L137.346307,52.9949732 L135.819172,52.9949732 Z M143.702865,63.1345279 C142.498722,63.1345279 141.537489,62.7353063 140.819138,61.9368511 C140.100787,61.138396 139.741616,60.0699291 139.741616,58.7314185 C139.741616,57.3774039 140.102079,56.3063531 140.823014,55.5182339 C141.543949,54.7301148 142.521977,54.3360611 143.757128,54.3360611 C144.992279,54.3360611 145.970307,54.7301148 146.691242,55.5182339 C147.412178,56.3063531 147.77264,57.372236 147.77264,58.7159146 C147.77264,60.0906012 147.410886,61.1706958 146.687366,61.956231 C145.963847,62.7417662 144.969023,63.1345279 143.702865,63.1345279 Z M143.72612,61.9872388 C145.343703,61.9872388 146.152482,60.8968083 146.152482,58.7159146 C146.152482,56.5608609 145.354039,55.4833502 143.757128,55.4833502 C142.165386,55.4833502 141.369527,56.5660288 141.369527,58.7314185 C141.369527,60.9019762 142.15505,61.9872388 143.72612,61.9872388 Z M150.160197,62.9407291 L150.160197,54.522108 L151.687332,54.522108 L151.687332,56.1035064 C152.493539,54.9252036 153.480611,54.3360611 154.648578,54.3360611 C155.377265,54.3360611 155.958656,54.5673254 156.392768,55.0298609 C156.826879,55.4923964 157.043932,56.1138384 157.043932,56.8942056 L157.043932,62.9407291 L155.516797,62.9407291 L155.516797,57.3903306 C155.516797,56.7650033 155.425066,56.3192704 155.241603,56.0531187 C155.058139,55.786967 154.754524,55.6538931 154.330748,55.6538931 C153.395341,55.6538931 152.514211,56.2662913 151.687332,57.491106 L151.687332,62.9407291 L150.160197,62.9407291 Z M162.245448,63.1345279 C161.547769,63.1345279 160.700231,62.9717385 159.702808,62.6461548 L159.702808,61.2430513 C160.700231,61.7391788 161.568441,61.9872388 162.307464,61.9872388 C162.746743,61.9872388 163.111082,61.8683767 163.400489,61.630649 C163.689897,61.3929212 163.834599,61.095766 163.834599,60.7391744 C163.834599,60.2172069 163.428917,59.7856858 162.617542,59.4445982 L161.726067,59.0647525 C160.408229,58.5169451 159.749319,57.7288377 159.749319,56.7004068 C159.749319,55.9665516 160.009007,55.3890368 160.528391,54.9678453 C161.047774,54.5466537 161.759655,54.3360611 162.664054,54.3360611 C163.134341,54.3360611 163.715732,54.4006601 164.408243,54.5298599 L164.726073,54.5918755 L164.726073,55.8631959 C163.873354,55.6099641 163.196357,55.4833502 162.695061,55.4833502 C161.713143,55.4833502 161.22219,55.8399364 161.22219,56.5531197 C161.22219,57.0130712 161.59428,57.400665 162.338472,57.7159127 L163.074907,58.0259908 C163.906954,58.3774144 164.496097,58.7482125 164.842353,59.1383961 C165.188608,59.5285796 165.361733,60.0156558 165.361733,60.5996392 C165.361733,61.3386624 165.069746,61.9458927 164.485763,62.4213482 C163.901779,62.8968037 163.155015,63.1345279 162.245448,63.1345279 Z M173.08259,62.9407291 L173.08259,51.4678384 L174.710501,51.4678384 L174.710501,61.7236724 L179.873301,61.7236724 L179.873301,62.9407291 L173.08259,62.9407291 Z M184.121328,63.1345279 C183.346128,63.1345279 182.741482,62.9123075 182.307371,62.4678599 C181.873259,62.0234124 181.656207,61.4058463 181.656207,60.6151431 L181.656207,55.669397 L180.601941,55.669397 L180.601941,54.522108 L181.656207,54.522108 L181.656207,52.9949732 L183.183341,52.8476861 L183.183341,54.522108 L185.384896,54.522108 L185.384896,55.669397 L183.183341,55.669397 L183.183341,60.3360728 C183.183341,61.4368557 183.65879,61.9872388 184.609701,61.9872388 C184.811252,61.9872388 185.056729,61.9536474 185.346136,61.8864634 L185.346136,62.9407291 C184.875849,63.0699289 184.467583,63.1345279 184.121328,63.1345279 Z M192.935254,62.9407291 L192.935254,61.3593306 C192.315095,62.5428014 191.379702,63.1345279 190.129047,63.1345279 C189.11612,63.1345279 188.318969,62.7650218 187.73757,62.0259986 C187.15617,61.2869754 186.865475,60.2766476 186.865475,58.9949849 C186.865475,57.5944584 187.19493,56.4678525 187.853849,55.6151334 C188.512768,54.7624143 189.379686,54.3360611 190.454629,54.3360611 C191.452052,54.3360611 192.278919,54.718487 192.935254,55.4833502 L192.935254,50.7003951 L194.470141,50.7003951 L194.470141,62.9407291 L192.935254,62.9407291 Z M192.935254,56.5298638 C192.144551,55.8321846 191.395203,55.4833502 190.687188,55.4833502 C189.224645,55.4833502 188.493385,56.6022042 188.493385,58.8399459 C188.493385,60.8089518 189.144543,61.79344 190.446877,61.79344 C191.294428,61.79344 192.123879,61.3309114 192.935254,60.4058404 L192.935254,56.5298638 Z" id="FinancialSolutionsLtd" fill="#969696" fill-rule="nonzero"></path>
        <polygon id="Fill-4" fill="#FFFFFF" points="25.764543 10.407159 31.313205 10.407159 31.313205 1.659042 25.764543 1.659042"></polygon>
    </g>
</svg>
