<?xml version="1.0" encoding="UTF-8"?>
<svg width="195px" height="64px" viewBox="0 0 195 64" version="1.1" xmlns="http://www.w3.org/2000/svg" xmlns:xlink="http://www.w3.org/1999/xlink">
    <!-- Generator: Sketch 54.1 (76490) - https://sketchapp.com -->
    <title>Artboard</title>
    <desc>Created with Sketch.</desc>
    <defs>
        <path d="M7.21973426,20.4887389 L8.66822059,20.4887389 C10.0877443,20.4887389 11.1354723,20.2521551 11.8114359,19.7789806 C12.4873996,19.305806 12.8253764,18.5622571 12.8253764,17.5483116 C12.8253764,16.5440227 12.4801572,15.8294433 11.7897086,15.4045518 C11.09926,14.9796604 10.029805,14.7672179 8.58131141,14.7672179 L7.21973426,14.7672179 L7.21973426,20.4887389 Z M7.21973426,24.1389244 L7.21973426,32.2649327 L2.72942664,32.2649327 L2.72942664,11.0880626 L8.8999784,11.0880626 C11.7776523,11.0880626 13.9069059,11.6119266 15.2878031,12.6596702 C16.6687003,13.7074139 17.3591386,15.2983188 17.3591386,17.4324327 C17.3591386,18.6781372 17.0163336,19.7862181 16.3307133,20.7567088 C15.645093,21.7271995 14.6746168,22.4876472 13.4192557,23.0380748 C16.6059416,27.7987903 18.6820846,30.8743789 19.647747,32.2649327 L14.664954,32.2649327 L9.6097367,24.1389244 L7.21973426,24.1389244 Z M33.4373368,32.2649327 L32.8434574,30.1935973 L32.6116996,30.1935973 C32.138525,30.9468139 31.4673997,31.5286168 30.5983036,31.9390233 C29.7292075,32.3494298 28.7394184,32.55463 27.6289066,32.55463 C25.7265517,32.55463 24.2925646,32.0452507 23.3269022,31.0264769 C22.3612398,30.0077031 21.8784159,28.5423324 21.8784159,26.6303209 L21.8784159,16.0708556 L26.2962992,16.0708556 L26.2962992,25.5294713 C26.2962992,26.6979228 26.5039135,27.5742482 26.9191483,28.158474 C27.3343831,28.7426997 27.995852,29.0348082 28.9035746,29.0348082 C30.1396224,29.0348082 31.0328467,28.6219937 31.5832743,27.7963524 C32.1337019,26.970711 32.4089115,25.6019052 32.4089115,23.6898936 L32.4089115,16.0708556 L36.8267948,16.0708556 L36.8267948,32.2649327 L33.4373368,32.2649327 Z M52.7601444,27.4559581 C52.7601444,29.1168974 52.1831698,30.3818961 51.0292033,31.2509923 C49.8752367,32.1200884 48.1491411,32.55463 45.8508646,32.55463 C44.6727565,32.55463 43.6684827,32.474964 42.8380131,32.3156297 C42.0075434,32.1562954 41.2301969,31.9221258 40.5059501,31.6131139 L40.5059501,27.9629283 C41.3267631,28.3491933 42.251371,28.6726853 43.2798014,28.9334141 C44.3082318,29.194143 45.2135267,29.3245055 45.9957133,29.3245055 C47.5987128,29.3245055 48.4002006,28.8609945 48.4002006,27.9339586 C48.4002006,27.5863201 48.2939793,27.3038681 48.0815336,27.0865941 C47.8690879,26.86932 47.5021417,26.6230798 46.980684,26.347866 C46.4592263,26.0726523 45.7639598,25.7515743 44.8948637,25.3846226 C43.6491592,24.863165 42.7342078,24.380341 42.1499821,23.9361363 C41.5657563,23.4919316 41.1408712,22.9825524 40.8753141,22.4079832 C40.6097569,21.8334141 40.4769804,21.126077 40.4769804,20.2859508 C40.4769804,18.8471138 41.034642,17.7342046 42.1499821,16.9471898 C43.2653221,16.1601749 44.8465705,15.7666734 46.8937748,15.7666734 C48.8444128,15.7666734 50.7419109,16.1915585 52.5863261,17.0413414 L51.2537186,20.2280113 C50.4425622,19.8803729 49.6845286,19.5955067 48.9795951,19.3734044 C48.2746616,19.151302 47.5552539,19.0402525 46.8213505,19.0402525 C45.5177063,19.0402525 44.8658939,19.392714 44.8658939,20.0976475 C44.8658939,20.4935691 45.0759223,20.8363741 45.4959855,21.1260728 C45.9160486,21.4157716 46.8358282,21.8454849 48.2553519,22.4152257 C49.5203697,22.9270267 50.4473916,23.4050224 51.0364457,23.8492271 C51.6254997,24.2934318 52.0600413,24.8052252 52.3400834,25.3846226 C52.6201255,25.9640201 52.7601444,26.6544583 52.7601444,27.4559581 Z M67.5057352,27.4559581 C67.5057352,29.1168974 66.9287606,30.3818961 65.7747941,31.2509923 C64.6208275,32.1200884 62.8947319,32.55463 60.5964555,32.55463 C59.4183473,32.55463 58.4140735,32.474964 57.5836039,32.3156297 C56.7531342,32.1562954 55.9757877,31.9221258 55.2515409,31.6131139 L55.2515409,27.9629283 C56.0723539,28.3491933 56.9969618,28.6726853 58.0253922,28.9334141 C59.0538227,29.194143 59.9591176,29.3245055 60.7413041,29.3245055 C62.3443036,29.3245055 63.1457914,28.8609945 63.1457914,27.9339586 C63.1457914,27.5863201 63.0395701,27.3038681 62.8271244,27.0865941 C62.6146787,26.86932 62.2477325,26.6230798 61.7262748,26.347866 C61.2048171,26.0726523 60.5095506,25.7515743 59.6404545,25.3846226 C58.39475,24.863165 57.4797986,24.380341 56.8955729,23.9361363 C56.3113471,23.4919316 55.8864621,22.9825524 55.6209049,22.4079832 C55.3553478,21.8334141 55.2225712,21.126077 55.2225712,20.2859508 C55.2225712,18.8471138 55.7802328,17.7342046 56.8955729,16.9471898 C58.0109129,16.1601749 59.5921614,15.7666734 61.6393656,15.7666734 C63.5900036,15.7666734 65.4875017,16.1915585 67.3319169,17.0413414 L65.9993095,20.2280113 C65.1881531,19.8803729 64.4301195,19.5955067 63.7251859,19.3734044 C63.0202524,19.151302 62.3008447,19.0402525 61.5669413,19.0402525 C60.2632971,19.0402525 59.6114847,19.392714 59.6114847,20.0976475 C59.6114847,20.4935691 59.8215132,20.8363741 60.2415763,21.1260728 C60.6616394,21.4157716 61.5814191,21.8454849 63.0009428,22.4152257 C64.2659605,22.9270267 65.1929825,23.4050224 65.7820365,23.8492271 C66.3710906,24.2934318 66.8056321,24.8052252 67.0856742,25.3846226 C67.3657163,25.9640201 67.5057352,26.6544583 67.5057352,27.4559581 Z M77.6596244,18.9098888 C76.7229319,18.9098888 75.9890395,19.2068255 75.4579252,19.8007078 C74.9268109,20.3945902 74.6226318,21.237118 74.5453788,22.3283165 L80.7449003,22.3283165 C80.725587,21.237118 80.4407209,20.3945902 79.8902933,19.8007078 C79.3398658,19.2068255 78.5963169,18.9098888 77.6596244,18.9098888 Z M78.2824735,32.55463 C75.6751851,32.55463 73.637668,31.8352223 72.1698612,30.3963853 C70.7020544,28.9575484 69.968162,26.9200313 69.968162,24.283773 C69.968162,21.5702617 70.6465296,19.4723917 72.0032853,17.9900999 C73.3600409,16.5078082 75.235812,15.7666734 77.6306547,15.7666734 C79.9192745,15.7666734 81.7008949,16.4184858 82.9755692,17.72213 C84.2502436,19.0257742 84.8875712,20.8267075 84.8875712,23.124984 L84.8875712,25.2687437 L74.4439847,25.2687437 C74.4922679,26.5241048 74.8640423,27.5042374 75.5593192,28.209171 C76.2545961,28.9141045 77.2299005,29.266566 78.4852616,29.266566 C79.4605806,29.266566 80.3827743,29.165173 81.2518705,28.9623839 C82.1209666,28.7595948 83.0286757,28.4361027 83.9750248,27.991898 L83.9750248,31.4103258 C83.2024949,31.7965907 82.3768659,32.083871 81.4981132,32.2721751 C80.6193604,32.4604793 79.5474912,32.55463 78.2824735,32.55463 Z M92.8977006,32.2649327 L88.4798173,32.2649327 L88.4798173,9.72648543 L92.8977006,9.72648543 L92.8977006,32.2649327 Z M101.95074,32.2649327 L97.5328568,32.2649327 L97.5328568,9.72648543 L101.95074,9.72648543 L101.95074,32.2649327 Z" id="path-1"></path>
        <path d="M2.41651545,15.9407291 L2.41651545,4.46783847 L8.82738068,4.46783847 L8.82738068,5.68489512 L4.0444256,5.68489512 L4.0444256,9.52986387 L8.05993732,9.52986387 L8.05993732,10.7314166 L4.0444256,10.7314166 L4.0444256,15.9407291 L2.41651545,15.9407291 Z M10.9746717,15.9407291 L10.9746717,7.52210801 L12.5018065,7.52210801 L12.5018065,15.9407291 L10.9746717,15.9407291 Z M10.9746717,5.99497324 L10.9746717,4.46783847 L12.5018065,4.46783847 L12.5018065,5.99497324 L10.9746717,5.99497324 Z M15.5638279,15.9407291 L15.5638279,7.52210801 L17.0909627,7.52210801 L17.0909627,9.10350644 C17.8971699,7.92520368 18.884242,7.33606113 20.0522088,7.33606113 C20.780896,7.33606113 21.3622867,7.56732542 21.7963983,8.02986094 C22.2305098,8.49239645 22.4475623,9.11383848 22.4475623,9.89420566 L22.4475623,15.9407291 L20.9204276,15.9407291 L20.9204276,10.3903307 C20.9204276,9.76500332 20.828697,9.31927047 20.6452332,9.05311875 C20.4617694,8.78696703 20.1581543,8.65389316 19.7343787,8.65389316 C18.7989717,8.65389316 17.9178418,9.26629134 17.0909627,10.4911061 L17.0909627,15.9407291 L15.5638279,15.9407291 Z M29.7576541,14.8709596 C28.8429191,15.7133427 27.9617892,16.1345279 27.1142381,16.1345279 C26.4165588,16.1345279 25.8377521,15.9161834 25.3778006,15.4794879 C24.9178491,15.0427923 24.6878768,14.4911172 24.6878768,13.8244459 C24.6878768,12.9045429 25.0741786,12.1978302 25.8467938,11.7042867 C26.619409,11.2107432 27.7266352,10.9639752 29.1685057,10.9639752 L29.5328475,10.9639752 L29.5328475,9.94846933 C29.5328475,8.97171836 29.0315595,8.48335019 28.0289686,8.48335019 C27.2227614,8.48335019 26.3519674,8.73141021 25.4165604,9.22753769 L25.4165604,7.96396933 C26.4449913,7.54536177 27.4088078,7.33606113 28.3080389,7.33606113 C29.2486139,7.33606113 29.9424068,7.54794573 30.3894383,7.97172129 C30.8364698,8.39549684 31.0599822,9.05440627 31.0599822,9.94846933 L31.0599822,13.7624303 C31.0599822,14.6358214 31.3287139,15.0725103 31.8661854,15.0725103 C31.9333693,15.0725103 32.0315597,15.0621745 32.1607596,15.0415025 L32.2692869,15.8864654 C31.9230313,16.0518413 31.5406054,16.1345279 31.1219979,16.1345279 C30.4088146,16.1345279 29.9540379,15.7133427 29.7576541,14.8709596 Z M29.5328475,14.0415006 L29.5328475,11.8632018 L29.0212186,11.8476978 C28.1840034,11.8476978 27.5070063,12.0066113 26.9902069,12.324443 C26.4734074,12.6422746 26.2150115,13.0595839 26.2150115,13.5763834 C26.2150115,13.943311 26.3442095,14.253386 26.6026092,14.5066178 C26.8610089,14.7598495 27.1762519,14.8864635 27.5483475,14.8864635 C28.1840108,14.8864635 28.8455042,14.604812 29.5328475,14.0415006 Z M34.1840194,15.9407291 L34.1840194,7.52210801 L35.7111541,7.52210801 L35.7111541,9.10350644 C36.5173613,7.92520368 37.5044334,7.33606113 38.6724002,7.33606113 C39.4010874,7.33606113 39.9824781,7.56732542 40.4165897,8.02986094 C40.8507012,8.49239645 41.0677537,9.11383848 41.0677537,9.89420566 L41.0677537,15.9407291 L39.540619,15.9407291 L39.540619,10.3903307 C39.540619,9.76500332 39.4488884,9.31927047 39.2654246,9.05311875 C39.0819608,8.78696703 38.7783457,8.65389316 38.3545701,8.65389316 C37.4191631,8.65389316 36.5380333,9.26629134 35.7111541,10.4911061 L35.7111541,15.9407291 L34.1840194,15.9407291 Z M47.3235799,16.1345279 C46.1866211,16.1345279 45.2434762,15.7133427 44.494117,14.8709596 C43.7447578,14.0285765 43.3700838,12.9665695 43.3700838,11.6849068 C43.3700838,10.3153883 43.7408819,9.24821339 44.4824891,8.48335019 C45.2240963,7.71848699 46.2589717,7.33606113 47.5871463,7.33606113 C48.2434816,7.33606113 48.9773258,7.42649968 49.788701,7.60737949 L49.788701,8.88645176 C48.9256459,8.63322002 48.2228092,8.50660605 47.6801697,8.50660605 C46.8998026,8.50660605 46.2731926,8.79988535 45.8003211,9.38645273 C45.3274496,9.97302012 45.0910174,10.7546676 45.0910174,11.7314186 C45.0910174,12.6771616 45.3339095,13.4420133 45.819701,14.0259967 C46.3054925,14.6099801 46.9411463,14.9019674 47.7266815,14.9019674 C48.4243607,14.9019674 49.1427012,14.7236742 49.8817244,14.3670826 L49.8817244,15.6849146 C48.8946375,15.9846583 48.0419311,16.1345279 47.3235799,16.1345279 Z M52.1685506,15.9407291 L52.1685506,7.52210801 L53.6956854,7.52210801 L53.6956854,15.9407291 L52.1685506,15.9407291 Z M52.1685506,5.99497324 L52.1685506,4.46783847 L53.6956854,4.46783847 L53.6956854,5.99497324 L52.1685506,5.99497324 Z M61.0988006,14.8709596 C60.1840656,15.7133427 59.3029357,16.1345279 58.4553846,16.1345279 C57.7577053,16.1345279 57.1788986,15.9161834 56.7189471,15.4794879 C56.2589956,15.0427923 56.0290233,14.4911172 56.0290233,13.8244459 C56.0290233,12.9045429 56.4153251,12.1978302 57.1879403,11.7042867 C57.9605554,11.2107432 59.0677817,10.9639752 60.5096522,10.9639752 L60.873994,10.9639752 L60.873994,9.94846933 C60.873994,8.97171836 60.372706,8.48335019 59.3701151,8.48335019 C58.5639079,8.48335019 57.6931139,8.73141021 56.7577069,9.22753769 L56.7577069,7.96396933 C57.7861378,7.54536177 58.7499543,7.33606113 59.6491854,7.33606113 C60.5897604,7.33606113 61.2835533,7.54794573 61.7305848,7.97172129 C62.1776163,8.39549684 62.4011287,9.05440627 62.4011287,9.94846933 L62.4011287,13.7624303 C62.4011287,14.6358214 62.6698604,15.0725103 63.2073319,15.0725103 C63.2745158,15.0725103 63.3727062,15.0621745 63.5019061,15.0415025 L63.6104334,15.8864654 C63.2641778,16.0518413 62.8817519,16.1345279 62.4631444,16.1345279 C61.7499611,16.1345279 61.2951844,15.7133427 61.0988006,14.8709596 Z M60.873994,14.0415006 L60.873994,11.8632018 L60.3623651,11.8476978 C59.5251499,11.8476978 58.8481528,12.0066113 58.3313533,12.324443 C57.8145539,12.6422746 57.556158,13.0595839 57.556158,13.5763834 C57.556158,13.943311 57.685356,14.253386 57.9437557,14.5066178 C58.2021554,14.7598495 58.5173984,14.8864635 58.889494,14.8864635 C59.5251573,14.8864635 60.1866507,14.604812 60.873994,14.0415006 Z M65.5251658,15.9407291 L65.5251658,3.70039512 L67.0523006,3.70039512 L67.0523006,15.9407291 L65.5251658,15.9407291 Z M77.3391424,16.2275514 C76.5691112,16.2275514 75.584623,16.0595941 74.3856483,15.7236744 L74.3856483,14.1112682 C75.6776469,14.7107555 76.7396539,15.0104947 77.571701,15.0104947 C78.2125323,15.0104947 78.7280321,14.8425374 79.1182156,14.5066178 C79.5083992,14.1706981 79.7034881,13.7288412 79.7034881,13.1810338 C79.7034881,12.7314183 79.5755822,12.3489924 79.3197664,12.0337447 C79.0639507,11.7184971 78.5923783,11.3670787 77.905035,10.9794791 L77.1143358,10.5221139 C76.1375848,9.96397045 75.4489598,9.43813489 75.0484403,8.9445914 C74.6479207,8.45104792 74.4476639,7.87611715 74.4476639,7.21978183 C74.4476639,6.33605476 74.7680747,5.60867043 75.4089061,5.03760703 C76.0497374,4.46654363 76.8662683,4.18101621 77.8585233,4.18101621 C78.7422503,4.18101621 79.6750594,4.32830185 80.6569783,4.62287754 L80.6569783,6.11125254 C79.4476676,5.63579704 78.5458661,5.39807285 77.9515467,5.39807285 C77.3882353,5.39807285 76.9231228,5.54794245 76.5561951,5.84768613 C76.1892675,6.14742982 76.0058065,6.52468776 76.0058065,6.97947129 C76.0058065,7.36190289 76.1401723,7.70040146 76.408908,7.99497715 C76.6776437,8.28955284 77.1685959,8.6409712 77.8817791,9.04924277 L78.7034861,9.51435996 C79.6957411,10.0776714 80.388242,10.6099668 80.7810096,11.1112623 C81.1737772,11.6125578 81.370158,12.2146201 81.370158,12.9174674 C81.370158,13.9148903 81.0019439,14.7159175 80.2655047,15.3205728 C79.5290655,15.9252282 78.5536211,16.2275514 77.3391424,16.2275514 Z M86.9825721,16.1345279 C85.7784293,16.1345279 84.8171968,15.7353063 84.0988455,14.9368512 C83.3804943,14.138396 83.021324,13.0699292 83.021324,11.7314186 C83.021324,10.377404 83.3817863,9.30635316 84.1027215,8.51823398 C84.8236567,7.73011481 85.8016851,7.33606113 87.0368358,7.33606113 C88.2719865,7.33606113 89.2500148,7.73011481 89.97095,8.51823398 C90.6918853,9.30635316 91.0523475,10.3722361 91.0523475,11.7159146 C91.0523475,13.0906012 90.6905933,14.1706959 89.967074,14.9562311 C89.2435548,15.7417662 88.2487308,16.1345279 86.9825721,16.1345279 Z M87.0058279,14.9872389 C88.6234103,14.9872389 89.4321893,13.8968084 89.4321893,11.7159146 C89.4321893,9.5608609 88.6337461,8.48335019 87.0368358,8.48335019 C85.4450934,8.48335019 84.6492342,9.56602882 84.6492342,11.7314186 C84.6492342,13.9019763 85.4347576,14.9872389 87.0058279,14.9872389 Z M93.439949,15.9407291 L93.439949,3.70039512 L94.9670838,3.70039512 L94.9670838,15.9407291 L93.439949,15.9407291 Z M103.292681,15.9407291 L103.292681,14.3593307 C102.481306,15.5428014 101.496818,16.1345279 100.339187,16.1345279 C99.6053321,16.1345279 99.0213575,15.9032636 98.5872459,15.4407281 C98.1531344,14.9781926 97.9360819,14.3541666 97.9360819,13.5686314 L97.9360819,7.52210801 L99.4632166,7.52210801 L99.4632166,13.0725064 C99.4632166,13.7030018 99.5549471,14.1513186 99.738411,14.4174703 C99.9218748,14.683622 100.228074,14.8166959 100.657017,14.8166959 C101.587256,14.8166959 102.465802,14.2042977 103.292681,12.979483 L103.292681,7.52210801 L104.819816,7.52210801 L104.819816,15.9407291 L103.292681,15.9407291 Z M110.408974,16.1345279 C109.633775,16.1345279 109.029129,15.9123075 108.595017,15.46786 C108.160906,15.0234124 107.943853,14.4058463 107.943853,13.6151432 L107.943853,8.66939707 L106.889588,8.66939707 L106.889588,7.52210801 L107.943853,7.52210801 L107.943853,5.99497324 L109.470988,5.84768613 L109.470988,7.52210801 L111.672543,7.52210801 L111.672543,8.66939707 L109.470988,8.66939707 L109.470988,13.3360728 C109.470988,14.4368557 109.946436,14.9872389 110.897347,14.9872389 C111.098899,14.9872389 111.344375,14.9536474 111.633783,14.8864635 L111.633783,15.9407291 C111.163496,16.069929 110.75523,16.1345279 110.408974,16.1345279 Z M113.819834,15.9407291 L113.819834,7.52210801 L115.346969,7.52210801 L115.346969,15.9407291 L113.819834,15.9407291 Z M113.819834,5.99497324 L113.819834,4.46783847 L115.346969,4.46783847 L115.346969,5.99497324 L113.819834,5.99497324 Z M121.70357,16.1345279 C120.499427,16.1345279 119.538195,15.7353063 118.819844,14.9368512 C118.101492,14.138396 117.742322,13.0699292 117.742322,11.7314186 C117.742322,10.377404 118.102784,9.30635316 118.82372,8.51823398 C119.544655,7.73011481 120.522683,7.33606113 121.757834,7.33606113 C122.992985,7.33606113 123.971013,7.73011481 124.691948,8.51823398 C125.412883,9.30635316 125.773346,10.3722361 125.773346,11.7159146 C125.773346,13.0906012 125.411591,14.1706959 124.688072,14.9562311 C123.964553,15.7417662 122.969729,16.1345279 121.70357,16.1345279 Z M121.726826,14.9872389 C123.344408,14.9872389 124.153187,13.8968084 124.153187,11.7159146 C124.153187,9.5608609 123.354744,8.48335019 121.757834,8.48335019 C120.166091,8.48335019 119.370232,9.56602882 119.370232,11.7314186 C119.370232,13.9019763 120.155756,14.9872389 121.726826,14.9872389 Z M128.160947,15.9407291 L128.160947,7.52210801 L129.688082,7.52210801 L129.688082,9.10350644 C130.494289,7.92520368 131.481361,7.33606113 132.649328,7.33606113 C133.378015,7.33606113 133.959406,7.56732542 134.393517,8.02986094 C134.827629,8.49239645 135.044681,9.11383848 135.044681,9.89420566 L135.044681,15.9407291 L133.517547,15.9407291 L133.517547,10.3903307 C133.517547,9.76500332 133.425816,9.31927047 133.242352,9.05311875 C133.058889,8.78696703 132.755273,8.65389316 132.331498,8.65389316 C131.396091,8.65389316 130.514961,9.26629134 129.688082,10.4911061 L129.688082,15.9407291 L128.160947,15.9407291 Z M140.246242,16.1345279 C139.548563,16.1345279 138.701024,15.9717385 137.703601,15.6461549 L137.703601,14.2430514 C138.701024,14.7391788 139.569234,14.9872389 140.308258,14.9872389 C140.747537,14.9872389 141.111875,14.8683768 141.401283,14.630649 C141.690691,14.3929213 141.835392,14.095766 141.835392,13.7391744 C141.835392,13.217207 141.429711,12.7856859 140.618336,12.4445982 L139.726861,12.0647525 C138.409023,11.5169451 137.750113,10.7288378 137.750113,9.70040683 C137.750113,8.9665516 138.009801,8.38903687 138.529184,7.96784531 C139.048568,7.54665375 139.760448,7.33606113 140.664847,7.33606113 C141.135135,7.33606113 141.716526,7.40066009 142.409037,7.52985996 L142.726867,7.59187558 L142.726867,8.8631959 C141.874148,8.60996416 141.197151,8.48335019 140.695855,8.48335019 C139.713936,8.48335019 139.222984,8.83993647 139.222984,9.55311972 C139.222984,10.0130712 139.595074,10.400665 140.339265,10.7159127 L141.075701,11.0259908 C141.907748,11.3774145 142.496891,11.7482125 142.843146,12.1383961 C143.189402,12.5285797 143.362527,13.0156559 143.362527,13.5996393 C143.362527,14.3386625 143.07054,14.9458927 142.486556,15.4213482 C141.902573,15.8968037 141.155809,16.1345279 140.246242,16.1345279 Z M151.083472,15.9407291 L151.083472,4.46783847 L152.711383,4.46783847 L152.711383,14.7236725 L157.874183,14.7236725 L157.874183,15.9407291 L151.083472,15.9407291 Z M162.122254,16.1345279 C161.347055,16.1345279 160.742408,15.9123075 160.308297,15.46786 C159.874185,15.0234124 159.657133,14.4058463 159.657133,13.6151432 L159.657133,8.66939707 L158.602867,8.66939707 L158.602867,7.52210801 L159.657133,7.52210801 L159.657133,5.99497324 L161.184267,5.84768613 L161.184267,7.52210801 L163.385822,7.52210801 L163.385822,8.66939707 L161.184267,8.66939707 L161.184267,13.3360728 C161.184267,14.4368557 161.659716,14.9872389 162.610627,14.9872389 C162.812179,14.9872389 163.057655,14.9536474 163.347062,14.8864635 L163.347062,15.9407291 C162.876775,16.069929 162.468509,16.1345279 162.122254,16.1345279 Z M170.936224,15.9407291 L170.936224,14.3593307 C170.316065,15.5428014 169.380672,16.1345279 168.130017,16.1345279 C167.11709,16.1345279 166.319939,15.7650219 165.73854,15.0259986 C165.15714,14.2869754 164.866445,13.2766476 164.866445,11.994985 C164.866445,10.5944584 165.1959,9.4678525 165.854819,8.6151334 C166.513738,7.76241429 167.380657,7.33606113 168.455599,7.33606113 C169.453022,7.33606113 170.279889,7.71848699 170.936224,8.48335019 L170.936224,3.70039512 L172.471111,3.70039512 L172.471111,15.9407291 L170.936224,15.9407291 Z M170.936224,9.52986387 C170.145521,8.8321846 169.396173,8.48335019 168.688158,8.48335019 C167.225616,8.48335019 166.494355,9.60220424 166.494355,11.8399459 C166.494355,13.8089518 167.145513,14.79344 168.447847,14.79344 C169.295399,14.79344 170.124849,14.3309115 170.936224,13.4058404 L170.936224,9.52986387 Z" id="path-2"></path>
    </defs>
    <g id="Artboard" stroke="none" stroke-width="1" fill="none" fill-rule="evenodd">
        <g id="logo" fill-rule="nonzero">
            <polygon id="Fill-1" fill="#243B53" points="12.271707 63.912807 17.05788 63.912807 17.05788 17.761716 12.271707 17.761716"></polygon>
            <polyline id="Fill-2" fill="#243B53" points="79.341192 23.138829 39.819654 0.321048 37.426788 4.465566 69.769287 23.138829 79.341192 23.138829"></polyline>
            <polyline id="Fill-3" fill="#243B53" points="0 23.396814 2.393307 27.541773 42.361137 4.465566 39.968271 0.321048 0 23.396814"></polyline>
            <g id="Russell" transform="translate(22.000000, 14.000000)">
                <g>
                    <use fill="#000000" xlink:href="#path-1"></use>
                    <use fill="#243B53" xlink:href="#path-1"></use>
                </g>
            </g>
            <g id="Financial-Solutions-Ltd" transform="translate(22.000000, 47.000000)">
                <g id="FinancialSolutionsLtd">
                    <use fill="#000000" xlink:href="#path-2"></use>
                    <use fill="#636463" xlink:href="#path-2"></use>
                </g>
            </g>
            <polygon id="Fill-4" fill="#243B53" points="25.764543 10.407159 31.313205 10.407159 31.313205 1.659042 25.764543 1.659042"></polygon>
        </g>
    </g>
</svg>